<svg width="31" height="31" viewBox="0 0 31 31" fill="none" xmlns="http://www.w3.org/2000/svg">
<g clip-path="url(#clip0_80_532)">
<path d="M30.5641 15.6647L28.985 14.6087C28.4261 14.2343 27.7546 14.0654 27.0851 14.1307C26.4155 14.1961 25.7894 14.4917 25.3134 14.9672L21.3125 19.0069C21.2225 18.3015 20.8769 17.6537 20.3414 17.1859C19.8058 16.7182 19.1173 16.463 18.4062 16.4688C17.5787 16.583 16.7371 16.4085 16.0231 15.9747C14.4926 14.9528 12.6745 14.4493 10.8364 14.5382C8.99821 14.6271 7.23718 15.3039 5.8125 16.4688V14.5312C5.8125 14.2743 5.71044 14.0279 5.52876 13.8462C5.34708 13.6646 5.10068 13.5625 4.84375 13.5625H0.96875C0.711821 13.5625 0.465416 13.6646 0.28374 13.8462C0.102064 14.0279 0 14.2743 0 14.5312L0 30.0312C0 30.2882 0.102064 30.5346 0.28374 30.7163C0.465416 30.8979 0.711821 31 0.96875 31H4.84375C5.10068 31 5.34708 30.8979 5.52876 30.7163C5.71044 30.5346 5.8125 30.2882 5.8125 30.0312V18.8906L7.26562 17.7959C8.37421 16.9874 9.70201 16.5341 11.0736 16.4961C12.4452 16.458 13.7961 16.837 14.9478 17.5828C15.9742 18.2408 17.1935 18.5311 18.4062 18.4062C18.6632 18.4062 18.9096 18.5083 19.0913 18.69C19.2729 18.8717 19.375 19.1181 19.375 19.375V20.3438H12.5938C12.3368 20.3438 12.0904 20.4458 11.9087 20.6275C11.7271 20.8092 11.625 21.0556 11.625 21.3125C11.625 21.5694 11.7271 21.8158 11.9087 21.9975C12.0904 22.1792 12.3368 22.2812 12.5938 22.2812H20.3438C20.6002 22.2777 20.8459 22.1773 21.0316 22.0003L26.6891 16.3428C26.8467 16.1841 27.0544 16.0849 27.2769 16.0619C27.4994 16.039 27.723 16.0937 27.9097 16.2169L28.6459 16.7109L21.1187 26.7375C21.0285 26.8578 20.9115 26.9555 20.777 27.0227C20.6425 27.09 20.4941 27.125 20.3438 27.125H8.71875C8.46182 27.125 8.21542 27.2271 8.03374 27.4087C7.85206 27.5904 7.75 27.8368 7.75 28.0938C7.75 28.3507 7.85206 28.5971 8.03374 28.7788C8.21542 28.9604 8.46182 29.0625 8.71875 29.0625H20.3438C20.7949 29.0625 21.2399 28.9575 21.6435 28.7557C22.047 28.5539 22.398 28.2609 22.6687 27.9L30.8062 17.05C30.8848 16.9444 30.9409 16.8239 30.9713 16.6958C31.0017 16.5678 31.0057 16.4349 30.983 16.3053C30.9604 16.1756 30.9115 16.052 30.8395 15.9418C30.7675 15.8317 30.6737 15.7374 30.5641 15.6647ZM3.875 29.0625H1.9375V15.5H3.875V29.0625Z" fill="#3FB38B"/>
<path d="M26.1562 5.81252V3.87502C26.1562 3.7069 26.1124 3.54168 26.0292 3.39561C25.946 3.24954 25.8262 3.12764 25.6816 3.0419L20.8378 0.135647C20.6905 0.0506217 20.5235 0.00585938 20.3534 0.00585938C20.1834 0.00585938 20.0163 0.0506217 19.8691 0.135647L15.0253 3.0419C14.8771 3.1252 14.7534 3.24604 14.6667 3.39228C14.58 3.53852 14.5332 3.70501 14.5312 3.87502V5.81252C14.5312 6.06945 14.6333 6.31586 14.815 6.49753C14.9967 6.67921 15.2431 6.78127 15.5 6.78127V9.68752C15.2431 9.68752 14.9967 9.78959 14.815 9.97126C14.6333 10.1529 14.5312 10.3993 14.5312 10.6563C14.5312 10.9132 14.6333 11.1596 14.815 11.3413C14.9967 11.523 15.2431 11.625 15.5 11.625H25.1875C25.4444 11.625 25.6908 11.523 25.8725 11.3413C26.0542 11.1596 26.1562 10.9132 26.1562 10.6563C26.1562 10.3993 26.0542 10.1529 25.8725 9.97126C25.6908 9.78959 25.4444 9.68752 25.1875 9.68752V6.78127C25.4444 6.78127 25.6908 6.67921 25.8725 6.49753C26.0542 6.31586 26.1562 6.06945 26.1562 5.81252ZM16.4688 4.42721L20.3438 2.10221L24.2188 4.42721V4.84377H16.4688V4.42721ZM17.4375 6.78127H19.375V9.68752H17.4375V6.78127ZM23.25 9.68752H21.3125V6.78127H23.25V9.68752Z" fill="#050F27"/>
</g>
<defs>
<clipPath id="clip0_80_532">
<rect width="31" height="31" fill="white"/>
</clipPath>
</defs>
</svg>
