<svg width="11" height="12" viewBox="0 0 11 12" fill="none" xmlns="http://www.w3.org/2000/svg">
<path d="M6.43934 1.73664C6.90349 1.22915 7.18874 1.00132 7.749 0.713264V9.16389L6.43934 9.42749V1.73664Z" fill="#3FB38B"/>
<path d="M10.6238 5.98521C10.8954 5.42701 10.9273 5.17892 11 4.60628L0.961161 6.72949C0.723102 7.24599 0.646473 7.53471 0.609787 8.04748L10.6238 5.98521Z" fill="#3FB38B"/>
<path d="M10.6238 8.5736C10.8954 8.0154 10.9273 7.7673 11 7.19466L6.48726 8.12501C6.45532 8.63669 6.492 8.89921 6.45532 9.41198L10.6238 8.5736Z" fill="#3FB38B"/>
<path d="M10.6238 11.1616C10.8954 10.6034 10.9273 10.3553 11 9.78268L6.88654 10.6524C6.67891 10.9315 6.55114 11.3967 6.45532 12L10.6238 11.1616Z" fill="#3FB38B"/>
<path d="M4.09155 10.2803C4.49084 9.79963 4.90609 9.1949 5.19357 8.69872L0.351374 9.72102C0.113315 10.2375 0.0366862 10.5262 0 11.039L4.09155 10.2803Z" fill="#3FB38B"/>
<path d="M3.88393 1.02338C4.34807 0.515891 4.63332 0.288052 5.19358 0V8.72973L3.88393 8.99333V1.02338Z" fill="#3FB38B"/>
</svg>
