<svg width="15" height="17" viewBox="0 0 15 17" fill="none" xmlns="http://www.w3.org/2000/svg">
<path d="M8.78092 2.46024C9.41385 1.7413 9.80283 1.41853 10.5668 1.01046V12.9822L8.78092 13.3556V2.46024Z" fill="#020202"/>
<path d="M14.4871 8.47905C14.8573 7.68826 14.9009 7.3368 15 6.52556L1.31067 9.53344C0.986048 10.2652 0.881554 10.6742 0.831528 11.4006L14.4871 8.47905Z" fill="#020202"/>
<path d="M14.4871 12.1459C14.8573 11.3551 14.9009 11.0037 15 10.1924L8.84626 11.5104C8.8027 12.2353 8.85273 12.6072 8.8027 13.3336L14.4871 12.1459Z" fill="#020202"/>
<path d="M14.4871 15.8123C14.8573 15.0215 14.9009 14.67 15 13.8588L9.39074 15.091C9.10761 15.4864 8.93338 16.1453 8.8027 17L14.4871 15.8123Z" fill="#020202"/>
<path d="M5.57939 14.5638C6.12387 13.8828 6.69013 13.0261 7.08215 12.3232L0.479146 13.7714C0.15452 14.5032 0.0500266 14.9122 0 15.6386L5.57939 14.5638Z" fill="#020202"/>
<path d="M5.29626 1.44979C5.92919 0.730846 6.31816 0.408074 7.08215 0V12.3671L5.29626 12.7405V1.44979Z" fill="#020202"/>
</svg>
