<svg width="1528" height="1203" viewBox="0 0 1528 1203" fill="none" xmlns="http://www.w3.org/2000/svg">
<path fill-rule="evenodd" clip-rule="evenodd" d="M7.40187 43.6808C0 60.7937 0 83.1958 0 128V400.095C0 461.034 0 491.503 12.7782 511.307C23.9605 528.638 41.4041 540.981 61.4683 545.758C84.3961 551.218 113.129 541.079 170.595 520.8L385.396 445C419.351 436 442.446 445 456.973 453.719C469.751 461.389 480.141 473.628 486.651 488.681C494.053 505.794 494.053 528.196 494.053 573V1075C494.053 1119.8 494.053 1142.21 502.773 1159.32C510.443 1174.37 522.681 1186.61 537.734 1194.28C554.847 1203 577.249 1203 622.053 1203H1419.34C1457.38 1203 1476.39 1203 1490.92 1194.28C1503.7 1186.61 1514.09 1174.37 1520.6 1159.32C1528 1142.21 1528 1119.8 1528 1075V128C1528 83.1958 1528 60.7937 1520.6 43.6808C1514.09 28.6278 1503.7 16.3893 1490.92 8.71948C1476.39 0 1457.38 0 1419.34 0H108.658C70.624 0 51.6071 0 37.0801 8.71948C24.3018 16.3893 13.9127 28.6278 7.40187 43.6808Z" fill="#F7F8F8"/>
</svg>
