<svg width="163" height="189" viewBox="0 0 163 189" fill="none" xmlns="http://www.w3.org/2000/svg">
<g opacity="0.13">
<path fill-rule="evenodd" clip-rule="evenodd" d="M52.4038 74.6496C35.6238 86.4897 20.0202 101.808 12.1972 120.782C9.35004 127.685 8.21522 134.818 6.98772 142.111C6.90087 142.622 7.24707 143.109 7.76049 143.197C8.27503 143.283 8.76231 142.937 8.84803 142.422C10.0528 135.271 11.1492 128.271 13.9414 121.501C21.6532 102.797 37.0857 87.7345 53.6377 76.0863L53.8374 76.3265C55.9988 78.9401 60.4293 80.1777 65.6827 80.2571C73.2129 80.372 82.4355 78.2102 88.4595 75.1381C91.1661 73.757 93.2356 72.1741 94.3065 70.554C95.1422 69.2914 95.4114 67.9865 95.0476 66.6952C94.2706 63.944 91.3066 62.5596 87.1623 62.3837C78.495 62.0134 64.5554 66.628 59.0696 70.1579C57.357 71.2607 55.6467 72.398 53.9488 73.5719C53.5561 73.1225 53.1734 72.6809 52.8207 72.2347C51.8196 70.9603 51.0536 69.6251 51.0007 67.7562C50.9216 64.8435 52.0798 61.9725 53.7974 59.2982C56.4808 55.1264 60.5411 51.4422 63.7505 48.8386C81.6251 34.34 101.123 32.43 118.546 34.855C136.142 37.3071 151.646 44.1631 161.336 47.107C161.834 47.2594 162.359 46.9764 162.512 46.4783C162.664 45.9801 162.382 45.4526 161.883 45.3024C152.13 42.3387 136.519 35.4543 118.805 32.9882C100.92 30.4951 80.9115 32.4903 62.562 47.3718C59.2186 50.0836 55.0046 53.9327 52.2108 58.2771C50.2779 61.2855 49.0257 64.531 49.1152 67.8091C49.1967 70.7507 50.6656 72.6307 52.4038 74.6496ZM55.1927 75.0052L55.2909 75.1259C57.1801 77.4107 61.1172 78.3015 65.7108 78.3701C72.9467 78.4806 81.811 76.4102 87.6022 73.4556C89.5884 72.4438 91.2044 71.3347 92.2326 70.1645C93.0795 69.1984 93.5154 68.2116 93.2305 67.2087C92.9658 66.2602 92.2825 65.5977 91.3311 65.1405C90.2151 64.6018 88.757 64.3399 87.0831 64.2676C78.7546 63.9126 65.3617 68.3518 60.0909 71.7442C58.4547 72.799 56.8197 73.8849 55.1927 75.0052Z" fill="#1E3240"/>
<path fill-rule="evenodd" clip-rule="evenodd" d="M8.54192 145.552C8.21553 145.299 7.8816 144.826 7.52864 144.313C6.68648 143.092 5.90419 141.561 5.50606 140.854C5.24884 140.399 4.67296 140.242 4.21974 140.497C3.76541 140.754 3.60548 141.329 3.8627 141.783C4.35141 142.648 5.3978 144.688 6.44142 146.022C7.00173 146.737 7.59016 147.256 8.09737 147.457C8.96053 147.801 9.80413 147.401 10.4176 146.084C11.1422 144.525 11.7859 141.283 13.8995 139.348C14.2835 138.998 14.3089 138.398 13.9576 138.016C13.6051 137.631 13.0086 137.605 12.6235 137.957C10.6095 139.803 9.71674 142.675 9.00778 144.555C8.87258 144.912 8.6676 145.315 8.54192 145.552Z" fill="#1E3240"/>
</g>
</svg>
