<svg width="75" height="75" viewBox="0 0 75 75" fill="none" xmlns="http://www.w3.org/2000/svg">
<path d="M17.1875 68.75C16.7875 68.75 16.3875 68.5969 16.0828 68.2922L12.9578 65.1672C12.6641 64.875 12.5 64.4766 12.5 64.0625V48.4375C12.5 47.575 13.2 46.875 14.0625 46.875C14.925 46.875 14.0625 49.1375 14.0625 50C14.0625 50.8609 17.8891 51.5609 18.75 51.5609C19.0203 51.5609 20.3125 48.6437 20.3125 48.4375C20.3125 47.575 19.45 46.875 20.3125 46.875C21.175 46.875 21.875 47.575 21.875 48.4375V64.0625C21.875 64.4766 21.7109 64.875 21.4172 65.1672L18.2922 68.2922C17.9875 68.5969 17.5875 68.75 17.1875 68.75ZM15.625 63.4156L17.1875 64.9781L18.75 63.4156V52.8609C17.7875 53.1984 16.6 53.2016 15.625 52.8578V63.4156Z" fill="white"/>
<path d="M65.625 56.25H29.6875C28.825 56.25 28.125 55.55 28.125 54.6875V53.125C28.125 51.4016 26.7234 50 25 50H20.3125C19.45 50 18.75 49.3 18.75 48.4375V44.6719C18.75 44.0532 19.1141 43.4938 19.6797 43.2438C21.9625 42.2313 23.4375 39.9766 23.4375 37.5C23.4375 34.536 21.3359 31.9594 18.4406 31.3766C17.7109 31.2282 17.1875 30.5875 17.1875 29.8438V15.8907C17.1875 15.3469 17.4703 14.8422 17.9344 14.5579L41.3719 0.229736C41.8719 -0.0749512 42.5016 -0.0749512 43.0016 0.229736L66.4391 14.5579C66.9047 14.8422 67.1875 15.3469 67.1875 15.8907V54.6875C67.1875 55.55 66.4891 56.25 65.625 56.25ZM31.25 53.125H64.0625V16.7657L42.1875 3.3938L20.3125 16.7657V28.6579C24 29.9594 26.5625 33.4922 26.5625 37.5C26.5625 40.8641 24.7531 43.9501 21.875 45.625V46.875H25C28.4469 46.875 31.25 49.6782 31.25 53.125Z" fill="white"/>
<path d="M70.3109 20.3125C70.0328 20.3125 69.7531 20.2391 69.4984 20.0844L64.8109 17.225C64.0734 16.775 63.8406 15.8141 64.2906 15.0766C64.7406 14.3406 65.7031 14.1047 66.4375 14.5562L71.125 17.4156C71.8625 17.8656 72.0953 18.8266 71.6453 19.5641C71.3516 20.0469 70.8375 20.3125 70.3109 20.3125ZM14.0641 20.3125C13.5375 20.3125 13.0234 20.0469 12.7297 19.5641C12.2797 18.8266 12.5125 17.8656 13.25 17.4156L17.9375 14.5562C18.6734 14.1047 19.6359 14.3391 20.0859 15.0766C20.5359 15.8141 20.3031 16.775 19.5656 17.225L14.8781 20.0844C14.6219 20.2391 14.3406 20.3125 14.0641 20.3125ZM17.1875 46.875C15.8984 46.875 14.6406 46.6172 13.4484 46.1094C10.0172 44.5891 7.8125 41.2125 7.8125 37.5C7.8125 32.3297 12.0172 28.125 17.1875 28.125C17.8656 28.125 18.5031 28.1906 19.0859 28.3187C23.4062 29.1891 26.5625 33.0531 26.5625 37.5C26.5625 41.2125 24.3578 44.5891 20.9453 46.1C20.3469 46.3625 19.7312 46.5547 19.0562 46.6875C18.4984 46.8094 17.8609 46.875 17.1875 46.875ZM17.1875 31.25C13.7406 31.25 10.9375 34.0531 10.9375 37.5C10.9375 39.9766 12.4125 42.2312 14.6953 43.2437C15.8828 43.7516 17.3437 43.8641 18.4156 43.6297C18.8953 43.5328 19.3016 43.4078 19.6844 43.2406C21.9625 42.2312 23.4375 39.9766 23.4375 37.5C23.4375 34.5359 21.3359 31.9594 18.4406 31.3766C18.0531 31.2906 17.6406 31.25 17.1875 31.25ZM29.6875 75H4.6875C3.825 75 3.125 74.3 3.125 73.4375V53.125C3.125 49.6781 5.92812 46.875 9.375 46.875H14.0625C14.925 46.875 15.625 47.575 15.625 48.4375V63.4156L17.1875 64.9781L18.75 63.4156V48.4375C18.75 47.575 19.45 46.875 20.3125 46.875H25C28.4469 46.875 31.25 49.6781 31.25 53.125V73.4375C31.25 74.3 30.55 75 29.6875 75ZM6.25 71.875H28.125V53.125C28.125 51.4016 26.7234 50 25 50H21.875V64.0625C21.875 64.4766 21.7109 64.875 21.4172 65.1672L18.2922 68.2922C17.6812 68.9031 16.6937 68.9031 16.0828 68.2922L12.9578 65.1672C12.6641 64.875 12.5 64.4766 12.5 64.0625V50H9.375C7.65156 50 6.25 51.4016 6.25 53.125V71.875ZM45.3125 28.125H39.0625C38.2 28.125 37.5 27.425 37.5 26.5625C37.5 25.7 38.2 25 39.0625 25H43.75V21.875H39.0625C38.2 21.875 37.5 21.175 37.5 20.3125V14.0625C37.5 13.2 38.2 12.5 39.0625 12.5H45.3125C46.1766 12.5 46.875 13.2 46.875 14.0625C46.875 14.925 46.1766 15.625 45.3125 15.625H40.625V18.75H45.3125C46.1766 18.75 46.875 19.45 46.875 20.3125V26.5625C46.875 27.425 46.1766 28.125 45.3125 28.125Z" fill="white"/>
<path d="M42.1875 15.625C41.3234 15.625 40.625 14.925 40.625 14.0625V10.9375C40.625 10.075 41.3234 9.375 42.1875 9.375C43.0516 9.375 43.75 10.075 43.75 10.9375V14.0625C43.75 14.925 43.0516 15.625 42.1875 15.625ZM42.1875 31.25C41.3234 31.25 40.625 30.55 40.625 29.6875V26.5625C40.625 25.7 41.3234 25 42.1875 25C43.0516 25 43.75 25.7 43.75 26.5625V29.6875C43.75 30.55 43.0516 31.25 42.1875 31.25ZM48.4375 56.25H35.9375C35.075 56.25 34.375 55.55 34.375 54.6875V35.9375C34.375 35.075 35.075 34.375 35.9375 34.375H48.4375C49.3016 34.375 50 35.075 50 35.9375V54.6875C50 55.55 49.3016 56.25 48.4375 56.25ZM37.5 53.125H46.875V37.5H37.5V53.125ZM21.1734 43.3672C20.7375 43.0781 20.1828 43.0266 19.6984 43.2344C18.9016 43.575 18.0125 43.7234 17.1875 43.7313C16.3625 43.7234 15.4719 43.5766 14.6766 43.2344C14.1922 43.0281 13.6375 43.0781 13.2016 43.3672C12.7625 43.6562 12.5 44.1469 12.5 44.6719V48.4375C12.5 51.0219 14.6031 53.125 17.1875 53.125C19.7719 53.125 21.875 51.0219 21.875 48.4375V44.6719C21.875 44.1469 21.6125 43.6562 21.1734 43.3672ZM18.75 48.4375C18.75 49.2984 18.0484 50 17.1875 50C16.3266 50 15.625 49.2984 15.625 48.4375V46.7453C16.1375 46.8312 16.6687 46.8687 17.1875 46.8703C17.7063 46.8687 18.2375 46.8312 18.75 46.7453V48.4375Z" fill="white"/>
</svg>
